<svg xmlns="http://www.w3.org/2000/svg" xmlns:xlink="http://www.w3.org/1999/xlink" xmlns:fi="http://pattern.flaticon.com/" x="0" y="0" width="700" height="350" viewBox="0 0 700 350"><rect x="0px" y="0px" width="100%" height="100%" opacity="1" fill="#ffffff"/><defs><path d="M454.837,7.765c-11.584-8.078-26.41-9.984-39.661-5.103L197.309,82.92c-16.915,6.231-28.28,22.53-28.28,40.555v245.242    c-12.431-8.824-28.382-12.304-45.873-9.805c-19.734,2.819-39.255,13.025-54.966,28.737    c-15.712,15.712-25.918,35.233-28.737,54.966c-2.997,20.982,2.579,39.767,15.703,52.89c10.805,10.805,25.445,16.492,41.993,16.492    c3.55,0,7.191-0.262,10.896-0.791c19.734-2.819,39.255-13.025,54.967-28.737c15.711-15.712,25.918-35.233,28.737-54.967    c0.446-3.128,0.68-6.2,0.75-9.221c0.008-0.182,0.027-212.657,0.027-212.657l257.317-94.791v154.435    c-12.43-8.822-28.381-12.303-45.873-9.805c-19.734,2.818-39.255,13.025-54.967,28.737s-25.918,35.233-28.737,54.967    c-2.998,20.982,2.579,39.767,15.702,52.89c10.805,10.805,25.445,16.494,41.994,16.494c3.55,0,7.191-0.262,10.896-0.792    c19.734-2.819,39.255-13.025,54.967-28.737c15.711-15.712,25.918-35.233,28.737-54.967c0.445-3.125,0.775-280.839,0.775-280.839    C473.336,29.095,466.42,15.843,454.837,7.765z M169.029,416.976c-0.012,2.334-0.188,4.739-0.54,7.205    c-2.105,14.735-9.95,29.536-22.092,41.677c-12.141,12.141-26.942,19.987-41.676,22.091c-13.48,1.925-25.186-1.29-32.953-9.056    c-7.766-7.766-10.983-19.47-9.056-32.954c2.105-14.734,9.95-29.535,22.091-41.675c12.141-12.141,26.942-19.987,41.676-22.093    c2.554-0.365,5.041-0.545,7.453-0.545c10.32,0,19.205,3.307,25.5,9.603c6.27,6.27,9.571,15.107,9.598,25.375V416.976z     M449.842,85.798L192.524,180.59v-57.113c0-8.227,5.187-15.664,12.907-18.508l217.867-80.26c6.137-2.26,12.734-1.413,18.101,2.33    c5.365,3.74,8.443,9.639,8.443,16.179V85.798z M449.841,313.51c-0.011,2.34-0.188,4.752-0.54,7.225    c-2.105,14.734-9.951,29.533-22.091,41.675c-12.141,12.142-26.942,19.987-41.676,22.093c-13.485,1.927-25.187-1.291-32.953-9.057    c-7.766-7.766-10.984-19.469-9.057-32.953c2.105-14.734,9.95-29.535,22.093-41.676c12.141-12.141,26.941-19.986,41.675-22.091    c2.554-0.365,5.042-0.545,7.453-0.545c10.32,0,19.205,3.306,25.5,9.602c6.274,6.274,9.575,15.119,9.598,25.396V313.51z" transform="matrix(0.11718795448541641 0 0 0.11718795448541641 76.00000004291553 -10)" id="L1_3"/><path d="M328.712,264.539c12.928-21.632,21.504-48.992,23.168-76.064c1.056-17.376-2.816-35.616-11.2-52.768  c-13.152-26.944-35.744-42.08-57.568-56.704c-16.288-10.912-31.68-21.216-42.56-35.936l-1.952-2.624  c-6.432-8.64-13.696-18.432-14.848-26.656c-1.152-8.32-8.704-14.24-16.96-13.76c-8.384,0.576-14.88,7.52-14.88,15.936v285.12  c-13.408-8.128-29.92-13.12-48-13.12c-44.096,0-80,28.704-80,64s35.904,64,80,64s80-28.704,80-64V165.467  c24.032,9.184,63.36,32.576,74.176,87.2c-2.016,2.976-3.936,6.176-6.176,8.736c-5.856,6.624-5.216,16.736,1.44,22.56  c6.592,5.888,16.704,5.184,22.56-1.44c4.288-4.864,8.096-10.56,11.744-16.512C328.04,265.563,328.393,265.083,328.712,264.539z" transform="matrix(0.14424359798431396 0 0 0.14424359798431396 167.00000058105945 101)" id="L1_5"/><path d="M52.66,0.249c-0.216-0.189-0.501-0.275-0.789-0.241l-31,4.011C20.373,4.084,20,4.507,20,5.01v6.017v4.212v25.384  C18.174,38.428,15.273,37,12,37c-5.514,0-10,4.037-10,9s4.486,9,10,9s10-4.037,10-9c0-0.232-0.019-0.46-0.039-0.687  C21.974,45.248,22,45.189,22,45.121V16.118l29-3.753v18.257C49.174,28.428,46.273,27,43,27c-5.514,0-10,4.037-10,9s4.486,9,10,9  c5.464,0,9.913-3.966,9.993-8.867c0-0.013,0.007-0.024,0.007-0.037V11.227V7.016V1C53,0.712,52.876,0.438,52.66,0.249z" transform="matrix(1.0909091234207153 0 0 1.0909091234207153 293 226)" id="L1_6"/></defs><g fi:class="KUsePattern"><pattern id="pattern_L1_3" width="350" height="350" patternUnits="userSpaceOnUse"><use xlink:href="#L1_3" x="-350" y="-350"/><use xlink:href="#L1_3" x="0" y="-350"/><use xlink:href="#L1_3" x="350" y="-350"/><use xlink:href="#L1_3" x="-350" y="0"/><use xlink:href="#L1_3" x="0" y="0"/><use xlink:href="#L1_3" x="350" y="0"/><use xlink:href="#L1_3" x="-350" y="350"/><use xlink:href="#L1_3" x="0" y="350"/><use xlink:href="#L1_3" x="350" y="350"/></pattern><rect x="0" y="0" width="100%" height="100%" fill="url(#pattern_L1_3)"/></g><g fi:class="KUsePattern"><pattern id="pattern_L1_5" width="350" height="350" patternUnits="userSpaceOnUse"><use xlink:href="#L1_5" x="-350" y="-350"/><use xlink:href="#L1_5" x="0" y="-350"/><use xlink:href="#L1_5" x="350" y="-350"/><use xlink:href="#L1_5" x="-350" y="0"/><use xlink:href="#L1_5" x="0" y="0"/><use xlink:href="#L1_5" x="350" y="0"/><use xlink:href="#L1_5" x="-350" y="350"/><use xlink:href="#L1_5" x="0" y="350"/><use xlink:href="#L1_5" x="350" y="350"/></pattern><rect x="0" y="0" width="100%" height="100%" fill="url(#pattern_L1_5)"/></g><g fi:class="KUsePattern"><pattern id="pattern_L1_6" width="350" height="350" patternUnits="userSpaceOnUse"><use xlink:href="#L1_6" x="-350" y="-350"/><use xlink:href="#L1_6" x="0" y="-350"/><use xlink:href="#L1_6" x="350" y="-350"/><use xlink:href="#L1_6" x="-350" y="0"/><use xlink:href="#L1_6" x="0" y="0"/><use xlink:href="#L1_6" x="350" y="0"/><use xlink:href="#L1_6" x="-350" y="350"/><use xlink:href="#L1_6" x="0" y="350"/><use xlink:href="#L1_6" x="350" y="350"/></pattern><rect x="0" y="0" width="100%" height="100%" fill="url(#pattern_L1_6)"/></g></svg>